<svg width="100" height="100" viewBox="0 0 100 100" xmlns="http://www.w3.org/2000/svg" xmlns:sketch="http://www.bohemiancoding.com/sketch/ns"><title>about</title><g sketch:type="MSLayerGroup" fill="#fff"><path d="M88.553 19.099c-9.386-11.715-23.386-18.432-38.41-18.432-11.124 0-22.042 3.842-30.741 10.814-10.256 8.218-16.694 19.933-18.136 32.995-1.442 13.062 2.293 25.9 10.511 36.151 9.388 11.718 23.391 18.435 38.419 18.435 11.122 0 22.036-3.839 30.733-10.808 10.256-8.218 16.696-19.939 18.138-33.001 1.439-13.059-2.293-25.9-10.514-36.154zm7.731 35.851c-1.358 12.317-7.431 23.372-17.102 31.122-8.322 6.67-18.343 10.195-28.983 10.195-14.174 0-27.381-6.336-36.235-17.385-7.75-9.671-11.273-21.778-9.915-34.096 1.358-12.317 7.431-23.366 17.102-31.116 8.322-6.672 18.346-10.2 28.988-10.2 14.171 0 27.376 6.336 36.226 17.382 7.753 9.668 11.276 21.781 9.918 34.098zM50.56 10.064c-9.016 0-17.881 3.125-24.962 8.803-17.086 13.689-19.964 38.581-6.418 55.49 7.448 9.293 18.6 14.622 30.596 14.622 9.016 0 17.881-3.125 24.959-8.8 17.088-13.695 19.967-38.587 6.418-55.49-7.445-9.293-18.598-14.624-30.593-14.624zm22.425 67.931c-6.586 5.278-14.826 8.184-23.209 8.184-11.141 0-21.498-4.948-28.412-13.572-12.58-15.702-9.895-38.83 5.984-51.556 6.588-5.281 14.829-8.187 23.212-8.187 11.141 0 21.496 4.948 28.409 13.574 12.58 15.7 9.898 38.828-5.984 51.556zM50.168 34.127c-7.904 0-14.333 6.432-14.333 14.336 0 5.281 4.64 9.962 4.838 10.158.823.82 1.574 2.624 1.574 3.786v6.72c0 2.316 1.884 4.2 4.2 4.2h7.448c2.316 0 4.2-1.884 4.2-4.2v-6.72c0-1.162.75-2.965 1.574-3.783.196-.196 4.841-4.88 4.841-10.161-.006-7.907-6.437-14.336-14.342-14.336zm5.124 29.425v2.072h-10.248v-2.072h10.248zm-1.4 6.975h-7.448c-.773 0-1.4-.627-1.4-1.4v-.7h10.248v.7c0 .77-.627 1.4-1.4 1.4zm3.794-13.888c-.997.991-1.803 2.579-2.17 4.113h-10.696c-.37-1.534-1.173-3.122-2.17-4.113-.042-.042-4.015-4.046-4.015-8.176 0-6.362 5.174-11.536 11.533-11.536 6.362 0 11.536 5.174 11.536 11.536 0 4.105-3.979 8.137-4.018 8.176zM50.666 29.776c1.075 0 1.946-.874 1.946-1.946v-7.092c0-1.075-.874-1.946-1.946-1.946s-1.946.874-1.946 1.946v7.092c0 1.075.871 1.946 1.946 1.946zM66.498 25.895l-5.012 5.015c-.759.759-.759 1.994 0 2.752.759.759 1.994.759 2.752 0l5.012-5.015c.759-.759.759-1.994 0-2.752-.759-.762-1.994-.762-2.752 0zM40.477 33.659c.759-.759.759-1.994 0-2.752l-5.012-5.015c-.759-.759-1.996-.759-2.752 0-.759.759-.759 1.994 0 2.752l5.012 5.015c.759.762 1.994.762 2.752 0zM44.134 50.63l1.98 1.98c2.164-2.162 5.933-2.162 8.1 0l1.98-1.98c-3.242-3.24-8.823-3.24-12.06 0z" sketch:type="MSShapeGroup"/></g></svg>