<?xml version="1.0" encoding="UTF-8" standalone="no"?>
<svg width="99px" height="99px" viewBox="0 0 99 99" version="1.1" xmlns="http://www.w3.org/2000/svg" xmlns:xlink="http://www.w3.org/1999/xlink" xmlns:sketch="http://www.bohemiancoding.com/sketch/ns">
    <title>mountain</title>
    <description>Created with Sketch (http://www.bohemiancoding.com/sketch)</description>
    <defs></defs>
    <g id="Page-1" stroke="none" stroke-width="1" fill="none" fill-rule="evenodd" sketch:type="MSPage">
        <g id="picture" sketch:type="MSLayerGroup" transform="translate(0.000000, 1.000000)" fill="#FFFFFF">
            <path d="M49.874,9.6824 C40.8552,9.6824 31.996,12.81 24.9288,18.4884 C11.206,29.4896 6.67,47.726 12.4324,63.2492 C12.452,63.3248 12.4744,63.3948 12.5052,63.4648 C13.908,67.1776 15.8904,70.7364 18.4972,73.9928 C25.9536,83.2832 37.106,88.6144 49.0956,88.6144 C58.1088,88.6144 66.9736,85.4868 74.0548,79.8084 C91.1292,66.122 94.016,41.2216 80.4864,24.304 C73.03,15.0108 61.8692,9.6824 49.874,9.6824 L49.874,9.6824 Z M72.3048,77.6244 C65.7164,82.9052 57.4732,85.8144 49.0956,85.8144 C37.96,85.8144 27.6028,80.8668 20.684,72.2428 C18.3824,69.3644 16.6044,66.234 15.3136,62.9692 L24.5704,44.212 L36.2184,51.5592 C36.2408,51.5732 36.2632,51.5648 36.2828,51.5788 C36.4956,51.6992 36.7252,51.7748 36.9632,51.7748 C37.2348,51.7748 37.4896,51.6712 37.722,51.52 C37.75,51.5032 37.7836,51.5116 37.8116,51.4892 L41.8828,48.398 L43.9772,51.2092 C44.0584,51.3184 44.1704,51.38 44.274,51.4584 C44.3356,51.506 44.3832,51.5732 44.4504,51.6068 C44.652,51.7132 44.8704,51.772 45.0944,51.772 C45.3436,51.772 45.5956,51.7076 45.8224,51.5676 L52.0888,47.7624 L55.1044,51.282 C55.2892,51.4976 55.53,51.6152 55.782,51.6908 L55.7736,51.716 L84.3868,60.1244 C82.2336,66.7772 78.1764,72.9148 72.3048,77.6244 L72.3048,77.6244 Z M30.358,32.4716 L35.8936,39.0096 C35.9804,39.1104 36.0924,39.1692 36.196,39.2392 C36.2576,39.2812 36.308,39.3428 36.3724,39.3708 C36.5572,39.4576 36.7588,39.5024 36.9604,39.5024 C37.2516,39.5024 37.5372,39.3988 37.7864,39.2168 C37.7976,39.2084 37.8144,39.214 37.8256,39.2028 L41.9668,35.9492 L50.2464,45.6064 L45.4584,48.5128 L43.28,45.5896 C43.28,45.5896 43.28,45.5896 43.2772,45.5896 C43.2772,45.5868 43.2772,45.584 43.2744,45.5812 C43.1904,45.4692 43.0812,45.3964 42.9748,45.318 C42.9328,45.2872 42.9048,45.2424 42.8628,45.2172 C42.7984,45.178 42.72,45.1696 42.65,45.1444 C42.552,45.1052 42.4568,45.0576 42.3532,45.0408 C42.342,45.0408 42.3308,45.0436 42.3196,45.0436 C42.1516,45.024 41.9808,45.0296 41.8156,45.0716 C41.7876,45.0772 41.7652,45.0996 41.7428,45.108 C41.5972,45.1556 41.4516,45.2116 41.3256,45.3068 C41.3256,45.3068 41.3228,45.3068 41.3228,45.3096 C41.32,45.3096 41.3172,45.3124 41.3144,45.3124 L36.8932,48.6696 L25.8164,41.6864 L30.358,32.4716 L30.358,32.4716 Z M85.1316,57.4224 L56.9636,49.1428 L43.2212,33.1072 C43.168,33.0456 43.098,33.0148 43.0392,32.9644 C42.9636,32.9 42.8908,32.8244 42.804,32.7796 C42.7312,32.7404 42.6472,32.7292 42.5688,32.704 C42.4764,32.676 42.3868,32.6368 42.2888,32.6284 C42.2132,32.62 42.1348,32.6396 42.0592,32.6452 C41.9584,32.6536 41.8548,32.6508 41.7568,32.6816 C41.6812,32.7068 41.6112,32.7572 41.5384,32.7964 C41.4572,32.8384 41.3676,32.8608 41.2948,32.9196 L37.1592,36.1676 L31.1168,29.0304 C31.114,29.0304 31.1112,29.0276 31.1112,29.0248 C31.0524,28.9576 30.9656,28.91 30.8928,28.854 C30.82,28.798 30.7556,28.7252 30.6744,28.6832 C30.6716,28.6832 30.6716,28.6804 30.6688,28.6804 C30.6128,28.6524 30.554,28.6552 30.4952,28.6356 C30.3804,28.5964 30.2684,28.5516 30.148,28.5432 C30.0584,28.5376 29.9716,28.5628 29.882,28.574 C29.7896,28.5852 29.7,28.5824 29.6104,28.6104 C29.4984,28.6468 29.4004,28.7168 29.2996,28.784 C29.2464,28.8176 29.1876,28.8288 29.14,28.8708 C29.1372,28.8708 29.1372,28.8736 29.1344,28.8764 C29.0784,28.924 29.0448,28.994 28.9972,29.05 C28.9244,29.1368 28.8404,29.218 28.7928,29.3132 L28.79,29.316 L14.048,59.1892 C10.324,45.4972 14.8152,30.1784 26.6788,20.6696 C33.2532,15.3888 41.4908,12.4824 49.8712,12.4824 C61.0124,12.4824 71.378,17.43 78.2968,26.054 C85.5936,35.1736 87.7132,46.788 85.1316,57.4224 L85.1316,57.4224 Z" id="Shape" sketch:type="MSShapeGroup"></path>
            <path d="M87.8784,18.032 C78.4816,6.3252 64.476,-0.3892 49.4484,-0.3892 C38.1644,-0.3892 27.5356,3.3488 18.71,10.4216 C8.4508,18.6312 2.0108,30.3464 0.5716,43.4056 C-0.8648,56.462 2.8732,69.3056 11.0968,79.5648 C20.474,91.2772 34.4684,97.9972 49.496,97.9972 L49.4988,97.9972 C60.6288,97.9972 71.546,94.1528 80.24,87.1752 C90.4964,78.9656 96.9392,67.2532 98.3812,54.194 C99.8204,41.1348 96.0936,28.294 87.8784,18.032 L87.8784,18.032 Z M95.598,53.8832 C94.24,66.2004 88.1668,77.2464 78.49,84.9856 C70.1712,91.6636 60.1472,95.1944 49.4988,95.1944 C35.3252,95.1944 22.1288,88.858 13.2864,77.812 C5.5276,68.1352 2.0052,56.0252 3.3576,43.7108 C4.7128,31.3964 10.786,20.3504 20.46,12.6084 C28.7844,5.936 38.8084,2.4108 49.4484,2.4108 C63.622,2.4108 76.8296,8.7444 85.6916,19.7848 C93.4392,29.4588 96.9588,41.5716 95.598,53.8832 L95.598,53.8832 Z" id="Shape" sketch:type="MSShapeGroup"></path>
            <path d="M58.2992,21.7924 C54.2644,21.7924 50.9828,25.074 50.9828,29.1088 C50.9828,33.1436 54.2644,36.4252 58.2992,36.4252 C62.334,36.4252 65.6156,33.1436 65.6156,29.1088 C65.6156,25.074 62.334,21.7924 58.2992,21.7924 L58.2992,21.7924 Z M58.2992,33.6252 C55.8072,33.6252 53.7828,31.598 53.7828,29.1088 C53.7828,26.6196 55.81,24.5924 58.2992,24.5924 C60.7884,24.5924 62.8156,26.6196 62.8156,29.1088 C62.8156,31.598 60.7912,33.6252 58.2992,33.6252 L58.2992,33.6252 Z" id="Shape" sketch:type="MSShapeGroup"></path>
        </g>
    </g>
</svg>