<svg width="100" height="99" viewBox="0 0 100 99" xmlns="http://www.w3.org/2000/svg" xmlns:sketch="http://www.bohemiancoding.com/sketch/ns"><title>contact</title><g sketch:type="MSLayerGroup" fill="#fff"><path d="M99.02 49.518c0-27.126-22.07-49.193-49.196-49.193-27.126 0-49.193 22.067-49.193 49.193 0 27.126 22.067 49.196 49.193 49.196 12.611 0 24.091-4.81 32.808-12.642l.048.053 1.148-1.14c.462-.445.918-.89 1.364-1.352l1.081-1.072.168-.196-.056-.045c7.826-8.711 12.636-20.191 12.636-32.802zm-95.592 0c0-25.581 20.812-46.393 46.393-46.393 25.584 0 46.396 20.812 46.396 46.393 0 12.508-4.998 23.853-13.07 32.203l-1.21 1.201c-8.344 8.028-19.653 12.992-32.119 12.992-25.578 0-46.39-20.812-46.39-46.396zM89.452 49.3c0-21.851-17.777-39.628-39.628-39.628s-39.628 17.777-39.628 39.628 17.777 39.628 39.628 39.628c21.851.003 39.628-17.774 39.628-39.628zm-4.248 10.125l-14.622-14.622 12.082-12.082c2.528 4.99 3.987 10.612 3.987 16.579 0 3.514-.524 6.905-1.448 10.125zm-35.381-46.95c13.303 0 24.945 7.112 31.419 17.71l-25.598 25.6c-3.416 3.416-8.968 3.416-12.384 0l-25.136-25.136c6.412-10.856 18.203-18.175 31.699-18.175zm-33.082 20.751l11.578 11.578-14.034 14.008c-.815-3.038-1.291-6.216-1.291-9.509 0-5.771 1.372-11.211 3.746-16.078zm33.082 52.906c-15.907 0-29.45-10.156-34.591-24.31l15.064-15.042 10.982 10.982c2.254 2.254 5.211 3.38 8.17 3.38 2.96 0 5.919-1.126 8.17-3.38l10.979-10.979 15.604 15.604c-5.286 13.857-18.684 23.744-34.378 23.744zM36.132 36.468c3.987 0 7.232-3.245 7.232-7.232s-3.242-7.235-7.232-7.235-7.232 3.245-7.232 7.232 3.245 7.235 7.232 7.235zm0-11.668c2.444 0 4.432 1.988 4.432 4.432 0 2.444-1.988 4.432-4.432 4.432-2.444 0-4.432-1.988-4.432-4.432 0-2.444 1.988-4.432 4.432-4.432zM46.326 25.455h11.463c.75 0 1.355-.608 1.355-1.355 0-.748-.608-1.355-1.355-1.355h-11.463c-.75 0-1.355.608-1.355 1.355 0 .748.608 1.355 1.355 1.355zM47.598 28.387c0 .75.608 1.355 1.355 1.355h11.463c.75 0 1.355-.608 1.355-1.355 0-.748-.608-1.355-1.355-1.355h-11.463c-.75-.003-1.355.605-1.355 1.355zM46.326 34.379h11.463c.75 0 1.355-.608 1.355-1.355 0-.748-.608-1.355-1.355-1.355h-11.463c-.75 0-1.355.608-1.355 1.355 0 .748.608 1.355 1.355 1.355z" sketch:type="MSShapeGroup"/></g></svg>