<svg width="100" height="99" viewBox="0 0 100 99" xmlns="http://www.w3.org/2000/svg" xmlns:sketch="http://www.bohemiancoding.com/sketch/ns"><title>desire</title><g sketch:type="MSLayerGroup" fill="#fff"><path d="M88.231 18.693c-9.388-11.718-23.391-18.435-38.422-18.435-11.122 0-22.036 3.839-30.73 10.808-10.259 8.218-16.699 19.939-18.138 33.001-1.439 13.062 2.296 25.9 10.514 36.156 9.386 11.715 23.386 18.432 38.41 18.432 11.124 0 22.042-3.842 30.741-10.814 10.254-8.218 16.694-19.933 18.133-32.995 1.442-13.062-2.29-25.903-10.508-36.154zm7.728 35.846c-1.358 12.314-7.431 23.366-17.102 31.116-8.322 6.672-18.346 10.2-28.988 10.2-14.171 0-27.376-6.336-36.226-17.382-7.753-9.674-11.273-21.784-9.918-34.101 1.358-12.317 7.431-23.372 17.105-31.122 8.319-6.67 18.34-10.195 28.98-10.195 14.176 0 27.384 6.336 36.235 17.385 7.753 9.671 11.273 21.781 9.915 34.098zM50.235 10.343c-9.016 0-17.881 3.125-24.959 8.8-8.277 6.633-13.504 16.055-14.717 26.533-1.215 10.483 1.733 20.768 8.299 28.958 7.445 9.293 18.598 14.624 30.593 14.624 9.016 0 17.881-3.125 24.965-8.803 17.086-13.689 19.964-38.581 6.418-55.49-7.451-9.29-18.6-14.622-30.598-14.622zm22.428 67.928c-6.588 5.281-14.832 8.187-23.215 8.187-11.141 0-21.496-4.948-28.409-13.574-6.093-7.605-8.828-17.153-7.7-26.886 1.128-9.741 5.989-18.5 13.686-24.671 6.586-5.278 14.826-8.184 23.209-8.184 11.141 0 21.498 4.948 28.412 13.572 12.58 15.705 9.895 38.833-5.984 51.556zM56.938 26.191c-1.246-1.568-2.691-3.013-4.298-4.298l-.781-.624-1.142.762c-5.785 4.634-9.307 11.096-10.354 17.92l-8.33 8.33v18.082l10.595-10.433c.484 1.042 1.011 2.066 1.632 3.063l.414.664 13.471-.115.409-.638c.661-1.03 1.226-2.097 1.742-3.181l10.8 10.637v-18.082l-8.296-8.296c-.644-4.939-2.604-9.722-5.86-13.79zm-5.183-1.392c1.1.966 2.103 2.016 2.993 3.136 5.953 7.442 7.059 17.508 3.22 26.079-3.968-2.408-9.209-2.391-13.129.006-4.262-9.993-1.613-21.843 6.916-29.221zm-16.923 34.874v-10.237l5.191-5.191c.003 2.982.507 5.97 1.478 8.856l-6.67 6.572zm11.399-2.831l-.154-.291c3.142-2.075 7.434-2.106 10.632-.028l-.118.232-10.36.087zm22.067-7.403v10.237l-6.838-6.734c.997-2.85 1.515-5.81 1.571-8.77l5.267 5.267zM51.534 44.114c3.08 0 5.583-2.506 5.583-5.583 0-3.077-2.506-5.583-5.583-5.583-3.077 0-5.583 2.506-5.583 5.583 0 3.077 2.503 5.583 5.583 5.583zm0-8.366c1.534 0 2.783 1.249 2.783 2.783 0 1.534-1.249 2.783-2.783 2.783-1.534 0-2.783-1.249-2.783-2.783 0-1.534 1.246-2.783 2.783-2.783zM51.534 60.922c-1.711 0-3.419 1.492-3.419 4.469 0 5.961 1.529 10.797 3.419 10.797 1.884 0 3.422-4.836 3.422-10.797-.003-2.982-1.716-4.472-3.422-4.469z" sketch:type="MSShapeGroup"/></g></svg>