<svg width="169" height="232" viewBox="0 0 169 232" xmlns="http://www.w3.org/2000/svg" xmlns:sketch="http://www.bohemiancoding.com/sketch/ns"><title>face</title><g sketch:type="MSLayerGroup" fill="#fff"><path d="M164.931 146.964c-1.508 6.599-5.453 13.735-12.226 15.061-.863 3.173-1.87 6.287-3.002 9.271l-.363.91c-6.629 16.978-16.796 32.998-30.317 41.754-10.221 6.619-22.709 11.041-34.355 11.041-11.7 0-24.236-4.451-34.492-11.129-13.439-8.748-23.55-24.718-30.16-41.612l-.104-.259-.231-.58c-1.145-3.011-2.163-6.141-3.032-9.33-6.99-1.142-11.047-8.413-12.581-15.126-1.523-2.671-4.689-9.253-3.962-16.724.927-9.527 4.866-13.971 9.315-15.861-.232-1.702-.363-2.85-.363-3.258 0-2.82.43-35.201 7.503-57.402l-7.503 1.063 10.116-8.035c.139-.316.284-.626.429-.934l-6.471-3.793 11.674-4.634.575-.746-3.154-4.269s8.387-3.953 13.159-6.247c13.81-12.016 33.204-20.498 55.7-20.127 1.874.03 3.675.115 5.427.234l15.405-6.231-3.134 7.781 10.035-3.112-1.492 5.63.891.31 11.264.285-1.133 4.496c10.432 6.109 17.81 14.385 25.516 22.339 14.532 15.002 9.174 55.765 9.174 69.035 0 2.645-.267 5.728-.74 9.178 3.253 2.432 5.863 6.782 6.593 14.298.727 7.47-2.439 14.052-3.962 16.723zm-10.975 4.896c-2.699.183-1.945-3.856-4.653-3.685 1.034-7.31 1.866-14.256 2.235-21.361.597-11.533-1.163-24.774-2.91-29.96-1.747-5.184.582-23.047.582-23.047s-2.901 4.83-13.968 4.035c11.068-5.528 9.895-14.403 9.895-14.403s-8.185 4.473-9.895 2.303c4.491-5.147 0-14.403 0-14.403s-5.653 10.56-8.661 10.56c.753-10.043-4.142-13.441-4.142-13.441s-9.758 11.58-26.186 16.709c8.349-11.265 2.91-16.709 2.91-16.709s-5.645 8.418-21.532 14.405c10.062-13.613 6.983-17.862 6.983-17.862l-12.802.578s-9.891 4.61-16.877 5.186c-6.983.576-15.13-1.154-18.622 3.457-3.492 4.609-5.82 6.914-5.82 6.914s.583-8.065 3.492-9.795c2.91-1.728-4.655.576-6.983 8.065-2.328 7.491-6.402 30.536-5.82 38.601.583 8.065-.557 23.972-.745 32.899-.047 2.247 2.909 15.483 3.235 18.191-2.512-.592-3.092-3.012-5.584-3.685-.956-5.66-6.536-20.002-7.219-24.402-2.271 1.806-3.357 5.049-3.792 9.518-.698 7.157 3.634 13.669 3.634 13.669s2.07 11.134 8.3 11.134c.347 0 .678-.019 1.002-.051.528-.064.743-.1.951-.142.59-.131.858-.205 1.113-.295.335 1.319.67 2.64 1.035 3.932.885 3.415 1.941 6.734 3.162 9.935l.317.788c6.159 15.704 15.282 30.419 27.663 38.459 8.977 5.83 20.105 10.045 30.915 10.045 10.761 0 21.843-4.186 30.79-9.965 12.453-8.043 21.631-22.813 27.808-38.593l.338-.844c1.198-3.153 2.234-6.417 3.107-9.775.362-1.28.692-2.588 1.026-3.893.822.252 1.73.398 2.751.398 6.23 0 8.3-11.134 8.3-11.134s4.332-6.512 3.634-13.669c-.246-2.529-.707-4.657-1.468-6.364-.847 4.413-6.301 22.532-7.5 27.698zm-114.834-49.683c10.199-3.091 21.361 2.911 23.862 2.729 2.501-.18 4.561-2.481 3.885-4.032-.676-1.553-10.405-4.162-17.159-3.848-11.826.551-20.836 5.037-22.711 12.974 0 .001 1.925-4.73 12.123-7.823zm102.877 5.823c-1.189-8.085-9.964-13.288-21.966-14.783-6.854-.852-17.004.981-17.836 2.478-.83 1.499 1.06 3.961 3.593 4.342 2.532.381 14.452-4.73 24.564-.826 10.113 3.905 11.644 8.788 11.644 8.788zm-76.163 10.24c-2.05-3.732-7.523-6.24-13.619-6.24-6.892 0-12.711 3.071-14.152 7.469-.233.711.177 1.47.915 1.694.14.042.282.062.423.062.596 0 1.148-.368 1.337-.944.706-2.155 3.199-3.947 6.441-4.882-1.035 1.223-1.657 2.784-1.657 4.486 0 3.929 3.309 7.115 7.39 7.115 4.079 0 7.388-3.186 7.388-7.115 0-1.406-.429-2.712-1.16-3.815 1.935.844 3.445 2.034 4.213 3.432.362.659 1.211.912 1.895.563.686-.347.948-1.165.585-1.824zm64.098 1.228c-1.441-4.397-7.261-7.468-14.153-7.468-6.098 0-11.572 2.508-13.619 6.241-.362.659-.1 1.476.584 1.824.686.35 1.535.096 1.895-.563.707-1.289 2.049-2.397 3.769-3.225-.65 1.059-1.03 2.29-1.03 3.61 0 3.929 3.309 7.115 7.391 7.115s7.389-3.186 7.389-7.115c0-1.753-.662-3.357-1.755-4.596 3.441.898 6.116 2.748 6.851 4.992.189.576.742.944 1.338.944.138 0 .281-.02.422-.062.741-.225 1.15-.984.917-1.695zm-53.909 22.747c-2.446 2.021-3.837 4.757-4.023 7.914-.059.978.74 1.814 1.78 1.868 1.046.044 1.932-.695 1.99-1.671.131-2.217 1.056-4.05 2.749-5.451 1.974-1.631 4.824-2.494 7.63-2.305 4.589.308 9.072 4.601 9.072 6.918 0 .978.845 1.772 1.888 1.772s1.888-.794 1.888-1.772c0-4.235-5.922-10.007-12.579-10.454-.339-.023-.677-.035-1.016-.035-3.46 0-6.906 1.17-9.379 3.216z" sketch:type="MSShapeGroup"/><path d="M79.556 188.996c3.892-.194 16.858-.961 20.177-2.679 1.184-.609 1.611-2.005.97-3.119-.641-1.114-2.116-1.526-3.29-.917-1.611.833-10.656 1.751-18.119 2.123-1.339.067-2.358 1.149-2.29 2.417.068 1.227 1.135 2.179 2.417 2.179l.136-.004zm-35.079-21.771c12.106-1.386 31.952-3.683 35.546-2.373 2.766.832 5.895 3.297 5.895 3.297s1.825-1.263 5.122-2.771c5.355-2.526 26.466 2.564 36.291 1.692 9.825-.873 26.588-27.577 26.588-27.577s5.341 92.507-70.557 92.507-64.793-97-64.793-97 13.801 33.611 25.908 32.225z" sketch:type="MSShapeGroup"/></g></svg>