<svg width="100" height="99" viewBox="0 0 100 99" xmlns="http://www.w3.org/2000/svg" xmlns:sketch="http://www.bohemiancoding.com/sketch/ns"><title>work</title><g sketch:type="MSLayerGroup" fill="#fff"><path d="M49.826.067c-27.126 0-49.193 22.067-49.193 49.193 0 27.126 22.067 49.196 49.193 49.196 27.126 0 49.196-22.07 49.196-49.196.003-27.126-22.067-49.193-49.196-49.193zm0 95.592c-25.581 0-46.393-20.815-46.393-46.396s20.812-46.393 46.393-46.393c25.584 0 46.396 20.812 46.396 46.393.003 25.581-20.812 46.396-46.396 46.396zM49.829 9.416c-21.851 0-39.628 17.777-39.628 39.626 0 21.854 17.777 39.631 39.628 39.631s39.626-17.78 39.626-39.631c.003-21.851-17.774-39.626-39.626-39.626zm-2.481 62.244l4.956-3.091.286 3.133-5.541 3.256.3-3.298zm-.616 6.728l6.138-3.604.384 4.217-6.891 3.45.37-4.063zm5.286-12.942l-4.354 2.713.423-4.64-.314-.028h4.385l-.314.028.174 1.926zm-26.051-39.897c-.689-.927-1.277-1.898-1.756-2.915 1.243-1.207 2.582-2.313 3.987-3.338l-2.232 6.252zm20.74 13.087l-15.677 15.375-16.643-14.862c1.504-5.379 4.194-10.254 7.778-14.342 4.144 7.574 13.667 12.925 24.542 13.829zm3.212.773l2.346 2.304-12.163 11.203-1.148-2.752 10.965-10.755zm4.348 4.27l2.027 1.991-14.216 11.981-.829-1.982 13.017-11.99zm4.032 3.962l1.898 1.865-13.762 11.189h-3.091l-.14-.333 15.095-12.72zm-7.423 13.051l7.818-6.356-2.652 6.356h-5.166zm2.243-22.036c10.973-.843 20.359-6.042 24.559-13.644 3.517 4.071 6.146 8.912 7.619 14.238l-16.514 14.759-15.663-15.352zm20.647-12.81l-2.349-6.58c1.492 1.086 2.918 2.26 4.228 3.553-.512 1.056-1.14 2.069-1.879 3.027zm-6.166-9.041l-.031.011 4.063 11.376c-5.057 4.78-13.028 7.795-21.65 7.795-8.772 0-16.85-3.111-21.899-8.033l3.982-11.155c5.272-2.918 11.326-4.589 17.766-4.589 6.44.006 12.494 1.677 17.769 4.595zm-54.6 32.236c0-2.324.241-4.586.655-6.793l17.466 15.596 5.678-5.569 4.682 11.217h3.797l-1.982 21.764c-17.198-3.094-30.296-18.138-30.296-36.215zm33.152 36.646l7.375-3.69.333 3.646c-1.324.146-2.668.232-4.029.232-1.243-.003-2.467-.067-3.679-.188zm18.544-2.976l-.056-11.704 18.581-6.532c-3.758 8.098-10.352 14.613-18.525 18.236zm19.925-21.697l-22.786 8.014.067 14.773c-1.705.594-3.458 1.078-5.267 1.417l-1.982-21.725h3.254l4.808-11.519 5.978 5.872 17.326-15.487c.4 2.17.638 4.396.638 6.681 0 4.197-.739 8.215-2.036 11.976z" sketch:type="MSShapeGroup"/></g></svg>